<svg width="21" height="24" viewBox="0 0 21 24" fill="none" xmlns="http://www.w3.org/2000/svg">
<path d="M13.2041 12.8669C13.2273 12.394 12.8628 11.9918 12.39 11.9686C11.9171 11.9453 11.5149 12.3098 11.4917 12.7826L11.2354 17.9909C11.2122 18.4637 11.5767 18.8659 12.0496 18.8892C12.5224 18.9125 12.9246 18.548 12.9478 18.0751L13.2041 12.8669Z" fill="white"/>
<path d="M7.79171 11.9686C7.31883 11.9918 6.95436 12.394 6.97762 12.8669L7.23383 18.0751C7.25709 18.548 7.65928 18.9125 8.13218 18.8892C8.60504 18.8659 8.96954 18.4637 8.94622 17.9909L8.69008 12.7826C8.66676 12.3098 8.26454 11.9453 7.79171 11.9686Z" fill="white"/>
<path fill-rule="evenodd" clip-rule="evenodd" d="M8.09157 0.570068C6.67127 0.570068 5.51987 1.72147 5.51987 3.14179V3.99903H2.66352C1.2432 3.99903 0.0917969 5.15043 0.0917969 6.57075C0.0917969 7.75898 0.897638 8.75899 1.99262 9.05409L2.71011 21.0122C2.79159 22.3702 3.91671 23.4298 5.27721 23.4298H14.9064C16.2669 23.4298 17.3921 22.3702 17.4736 21.0122L18.191 9.05409C19.286 8.75899 20.0918 7.75898 20.0918 6.57075C20.0918 5.15043 18.9405 3.99903 17.5201 3.99903H14.6637V3.14179C14.6637 1.72147 13.5124 0.570068 12.092 0.570068H8.09157ZM12.9493 3.99903V3.14179C12.9493 2.66835 12.5655 2.28455 12.092 2.28455H8.09157C7.61815 2.28455 7.23435 2.66835 7.23435 3.14179V3.99903H12.9493ZM2.66352 5.71351C2.19008 5.71351 1.80628 6.09732 1.80628 6.57075C1.80628 7.04419 2.19008 7.428 2.66352 7.428H17.5201C17.9936 7.428 18.3773 7.04419 18.3773 6.57075C18.3773 6.09732 17.9936 5.71351 17.5201 5.71351H2.66352ZM3.71549 9.14248H16.4682L15.7622 20.9094C15.735 21.3622 15.3599 21.7153 14.9064 21.7153H5.27721C4.82371 21.7153 4.44867 21.3622 4.42151 20.9094L3.71549 9.14248Z" fill="white"/>
</svg>
