<svg width="21" height="20" viewBox="0 0 21 20" fill="none" xmlns="http://www.w3.org/2000/svg">
<path fill-rule="evenodd" clip-rule="evenodd" d="M18.222 0.781771C17.1797 -0.26059 15.4897 -0.26059 14.4473 0.781771L12.3464 2.88267C12.3397 2.88888 12.3332 2.8952 12.3268 2.90165C12.3204 2.9081 12.314 2.91462 12.3078 2.92122L2.24394 12.9852C1.93416 13.2949 1.70538 13.6762 1.57782 14.0953L0.13037 18.8512C0.0346969 19.1656 0.120062 19.5071 0.352407 19.7394C0.584752 19.9718 0.926234 20.0572 1.24057 19.9614L5.99651 18.5141C6.41564 18.3864 6.79692 18.1577 7.10672 17.8478L19.3101 5.64455C20.3524 4.60219 20.3524 2.91219 19.3101 1.86983L18.222 0.781771ZM12.9563 4.7893L3.50218 14.2433C3.39893 14.3467 3.32266 14.4737 3.28015 14.6134L2.31841 17.7735L5.47841 16.8116C5.61812 16.7692 5.74521 16.6929 5.84848 16.5897L15.3025 7.1356L12.9563 4.7893ZM16.5608 5.87736L18.0518 4.38631C18.3993 4.03885 18.3993 3.47552 18.0518 3.12807L16.9638 2.04001C16.6163 1.69256 16.0529 1.69256 15.7055 2.04001L14.2144 3.53106L16.5608 5.87736Z" fill="white"/>
</svg>
