<svg width="178" height="56" viewBox="0 0 178 56" fill="none" xmlns="http://www.w3.org/2000/svg">
<path d="M149.859 55.5024C164.919 55.5024 177.128 43.2935 177.128 28.2329C177.128 13.1724 164.919 0.963379 149.859 0.963379C141.52 0.963379 134.056 4.70594 129.054 10.6029C133.147 15.3729 135.62 21.5735 135.62 28.3517C135.62 35.0738 133.188 41.2279 129.155 45.9817C134.157 51.8101 141.576 55.5024 149.859 55.5024Z" fill="url(#paint0_linear_143_80)"/>
<path fill-rule="evenodd" clip-rule="evenodd" d="M88.9629 45.736C92.9886 41.027 95.4197 34.9138 95.4197 28.2329C95.4197 21.552 92.9886 15.4388 88.9629 10.7298V1.52063H105.718C120.537 1.52063 132.549 13.5333 132.549 28.3517C132.549 43.1702 120.537 55.1829 105.718 55.1829H88.9629V45.736ZM101.382 14.0959H104.931C112.739 14.0959 119.068 20.4253 119.068 28.233C119.068 36.0406 112.739 42.37 104.931 42.37H101.382V14.0959Z" fill="url(#paint1_linear_143_80)"/>
<path d="M38.6808 23.66C38.3995 25.221 38.2527 26.8286 38.2527 28.4706C38.2527 43.3546 50.3186 55.4205 65.2026 55.4205C80.0867 55.4205 92.1526 43.3546 92.1526 28.4706C92.1526 13.5865 80.0867 1.52063 65.2026 1.52063C62.7123 1.52063 60.3009 1.8584 58.0117 2.49063V23.66H38.6808Z" fill="url(#paint2_linear_143_80)"/>
<path d="M54.7166 1.04535H0.0917969V20.5647H14.8445V55.4205H34.3638V20.5647H54.7166V1.04535Z" fill="url(#paint3_linear_143_80)"/>
<defs>
<linearGradient id="paint0_linear_143_80" x1="0.0917969" y1="26.1586" x2="179.493" y2="28.2329" gradientUnits="userSpaceOnUse">
<stop offset="0.265278" stop-color="white"/>
<stop offset="0.97805" stop-color="#535353"/>
</linearGradient>
<linearGradient id="paint1_linear_143_80" x1="0.0917969" y1="26.1586" x2="179.493" y2="28.2329" gradientUnits="userSpaceOnUse">
<stop offset="0.265278" stop-color="white"/>
<stop offset="0.97805" stop-color="#535353"/>
</linearGradient>
<linearGradient id="paint2_linear_143_80" x1="0.0917969" y1="26.1586" x2="179.493" y2="28.2329" gradientUnits="userSpaceOnUse">
<stop offset="0.265278" stop-color="white"/>
<stop offset="0.97805" stop-color="#535353"/>
</linearGradient>
<linearGradient id="paint3_linear_143_80" x1="0.0917969" y1="26.1586" x2="179.493" y2="28.2329" gradientUnits="userSpaceOnUse">
<stop offset="0.265278" stop-color="white"/>
<stop offset="0.97805" stop-color="#535353"/>
</linearGradient>
</defs>
</svg>
